<svg viewBox="0 0 100 100" xmlns="http://www.w3.org/2000/svg">
  <defs>
    <filter id="glow">
      <feGaussianBlur stdDeviation="1.5" result="coloredBlur"/>
      <feMerge> 
        <feMergeNode in="coloredBlur"/>
        <feMergeNode in="SourceGraphic"/>
      </feMerge>
    </filter>
  </defs>
  
  <!-- Background circle -->
  <circle cx="50" cy="50" r="48" fill="currentColor" opacity="0.1"/>
  
  <!-- Letter N - scaled and positioned -->
  <path 
    d="M2 45C3 39 12 23 20 14C18 37 22 43 25 43C28 43 33 31 43 5" 
    transform="translate(18, 28) scale(0.85)"
    stroke="currentColor" 
    stroke-width="3" 
    stroke-linecap="round" 
    stroke-linejoin="round"
    fill="none"
    filter="url(#glow)"
  />
  
  <!-- Letter K - scaled and positioned -->
  <path 
    d="M31 6C21 19 15 29 6 46C23 13 40 12 53 10C65 8 51 20 51 20C81 -7 -1 24 1 38C2 45 37 36 37 36" 
    transform="translate(48, 30) scale(0.75)"
    stroke="currentColor" 
    stroke-width="3" 
    stroke-linecap="round" 
    stroke-linejoin="round"
    fill="none"
    filter="url(#glow)"
  />
</svg>
